inDegrees=yes
name=ik_lifting_orientations
DataType=double
version=3
OpenSimVersion=4.5-2024-01-10-34fd6af
endheader
time	pelvis_tilt	pelvis_list	pelvis_rotation	pelvis_tx	pelvis_ty	pelvis_tz	hip_flexion_r	hip_adduction_r	hip_rotation_r	knee_angle_r	knee_angle_r_beta	ankle_angle_r	subtalar_angle_r	mtp_angle_r	hip_flexion_l	hip_adduction_l	hip_rotation_l	knee_angle_l	knee_angle_l_beta	ankle_angle_l	subtalar_angle_l	mtp_angle_l	lumbar_extension	lumbar_bending	lumbar_rotation	arm_flex_r	arm_add_r	arm_rot_r	elbow_flex_r	pro_sup_r	wrist_flex_r	wrist_dev_r	arm_flex_l	arm_add_l	arm_rot_l	elbow_flex_l	pro_sup_l	wrist_flex_l	wrist_dev_l
0.02	0.002405030160288186	0.001955970740495746	90.00529377883625	0	0.9400000003403366	0	42.86040616341636	-13.44968522043145	0	55.13522117206041	0.9622911432677412	-6.920105826219004	0	0	42.86040616341636	-13.44968522043145	0	55.13522117206041	0.9622911432677412	-6.920105826219004	0	0	0.005090757210172729	0.003656036885621303	-0.009816370835804819	-0.2663651018021482	-0.0678976691429404	0.005901883936225514	0.5337909567798412	-11.26285517880999	0	0	0	-8.057549865076028	0	75.1709423402756	11.26264495129495	0	0
0.03	0.003976364193809777	-0.02481574114075753	90.01793051743728	0	0.9400000003403366	0	42.89864516506739	-13.2618019893735	0	55.20446427669942	0.9634996634279949	-6.791139870612246	0	0	42.89864516506739	-13.2618019893735	0	55.20446427669942	0.9634996634279949	-6.791139870612246	0	0	0.05832704255786555	0.01861078533142791	-0.01004919146093424	-0.5143006733579304	-0.1274556844948043	-0.0301385637345839	0.9805641294538552	-11.11843887861273	0	0	0	-8.123109516097642	0	75.16789240476322	11.1182286504654	0	0
0.04	0.0001084669735544555	-0.004135822840646154	89.98770264314845	0	0.9400000003403366	0	42.96949510770091	-12.9369287349424	0	55.33380948543515	0.9657571631921126	-6.573576582514373	0	0	42.96949510770091	-12.9369287349424	0	55.33380948543515	0.9657571631921126	-6.573576582514373	0	0	0.008340393093793403	-0.001914746874148799	0.02365668840270587	-0.2926716717090718	-0.06451815525524394	-0.02059935846628556	0.6117261820821039	-10.84859397171673	0	0	0	-8.246413555715538	0	75.16224106153444	10.84838374239005	0	0
0.05	-0.0004830987297497117	0.00330786096036942	90.00115120412762	0	0.9400000003403366	0	43.00646859992226	-12.77535134768571	0	55.40148119214163	0.9669382572845847	-6.466992022146745	0	0	43.00646859992226	-12.77535134768571	0	55.40148119214163	0.9669382572845847	-6.466992022146745	0	0	-0.006437553440885151	0.0005028408695904762	-0.003262918112755969	-0.2325271918238242	-0.05560257002741011	-0.00239164154869509	0.4899742479880815	-10.70685019591503	0	0	0	-8.311501577092587	0	75.159291750251	10.70663996596969	0	0
0.06	-0.0001563441809621301	0.003393331572887372	89.98397911343987	0	0.9400000003403366	0	43.05997842138956	-12.54910878798405	0	55.49970656529369	0.9686526134550882	-6.319633413159425	0	0	43.05997842138956	-12.54910878798405	0	55.49970656529369	0.9686526134550882	-6.319633413159425	0	0	-0.00225108755284016	-0.005031201814605657	0.002721734500572864	-0.2362607713382994	-0.08974807711186039	0.01829587583056103	0.5046436513177411	-10.50091479573131	0	0	0	-8.406341979134277	0	75.1550232493947	10.50070456488786	0	0
0.07000000000000001	0.001163838524785931	0.01009304790249643	89.98177467260783	0	0.9400000003403366	0	43.09426362461061	-12.41273626662556	0	55.56301862934296	0.9697576174289814	-6.232607445641449	0	0	43.09426362461061	-12.41273626662556	0	55.56301862934296	0.9697576174289814	-6.232607445641449	0	0	-0.01397346715405186	-0.002667808471313515	0.004034512787166883	-0.2434020854042093	-0.08444256273893214	0.02210721728128458	0.5078942538072861	-10.36790016777159	0	0	0	-8.467972231479322	0	75.1522881695679	10.36768993634894	0	0
0.08	-0.001474407042139928	0.008298664995662886	90.00056072298908	0	0.9400000003403366	0	43.15213778881863	-12.19340550051708	0	55.67037532408114	0.9716313452262212	-6.095042503592063	0	0	43.15213778881863	-12.19340550051708	0	55.67037532408114	0.9716313452262212	-6.095042503592063	0	0	-0.009161336156211236	-0.001426143825409302	-0.001598074008470306	-0.2462926144997901	-0.08717236641758098	-0.0005844536175880487	0.508709006534551	-10.14198674972222	0	0	0	-8.573126733992085	0	75.1476711248642	10.14177651731698	0	0
0.09	-0.008142052971003105	-0.002513678892695389	90.0163603892063	0	0.9400000003403366	0	43.24756192410812	-11.88932950829212	0	55.85020458742176	0.9747699579629509	-5.916153716801289	0	0	43.24756192410812	-11.88932950829212	0	55.85020458742176	0.9747699579629509	-5.916153716801289	0	0	0.002172485458614971	-0.001598585272818771	-0.003418846768239725	-0.2398438999332088	-0.09287298419107587	-0.01911785347142842	0.4949009041759692	-9.761444352551289	0	0	0	-8.753064832257634	0	75.14005751541998	9.76123411849721	0	0
0.1	1.786239364596519e-05	0.002473639243808399	89.99945869904404	0	0.9400000003403366	0	43.2929535999182	-11.73981344909101	0	55.93561613712816	0.9762606707245584	-5.826538193281278	0	0	43.2929535999182	-11.73981344909101	0	55.93561613712816	0.9762606707245584	-5.826538193281278	0	0	-0.005313633675604878	-0.001638355412697398	7.937427427391715e-05	-0.2366721559943223	-0.08667959578374862	-0.02916881254063869	0.4911844076649296	-9.580786669549926	0	0	0	-8.838375893472195	0	75.13643592455819	9.580576434712688	0	0
0.11	-0.0004928905192657086	0.002726230340181994	90.00031242800844	0	0.9400000003403366	0	43.3384527953706	-11.59877884239908	0	56.02172183042819	0.9777634985773563	-5.743834405459442	0	0	43.3384527953706	-11.59877884239908	0	56.02172183042819	0.9777634985773563	-5.743834405459442	0	0	-0.005659910442119147	-0.001811808692073188	1.548580069070794e-05	-0.2381767563030255	-0.09248083443377439	-0.05972036166820645	0.4932428480836084	-9.398283541978785	0	0	0	-8.925047963633482	0	75.13280561713758	9.398073306351375	0	0
0.12	-0.00146574235823693	-0.003087230348037924	89.99649949054054	0	0.9400000003403366	0	43.4229835678893	-11.38007740601316	0	56.18444397014255	0.9806035356812622	-5.623688274888457	0	0	43.4229835678893	-11.38007740601316	0	56.18444397014255	0.9806035356812622	-5.623688274888457	0	0	0.004949326333451499	-0.0001053129043190828	-0.0001560658443309557	-0.2484965357977693	-0.09736124687116642	-0.05390593024557899	0.5045223490884605	-9.05125857611211	0	0	0	-9.092623833753402	0	75.12606034232286	9.051048338987401	0	0
0.13	-0.0001446689895291613	0.003313363909812524	89.99980273212219	0	0.9400000003403366	0	43.50787355400683	-11.17873791539371	0	56.34942123987077	0.9834829322289703	-5.51590474292505	0	0	43.50787355400683	-11.17873791539371	0	56.34942123987077	0.9834829322289703	-5.51590474292505	0	0	-0.006629962812508628	-0.002542329556407387	-0.001794113111247463	-0.2369919955934276	-0.09307492699830089	-0.05815379023632213	0.4929978992780186	-8.698169769065686	0	0	0	-9.26474628548622	0	75.1192860919446	8.697959530420103	0	0
0.14	-0.0004205509142293966	0.000950867565187249	90.00050804051257	0	0.9400000003403366	0	43.58037285318538	-11.02030935433517	0	56.49154282592684	0.9859634218438051	-5.433283529249183	0	0	43.58037285318538	-11.02030935433517	0	56.49154282592684	0.9859634218438051	-5.433283529249183	0	0	-0.002573137118066834	0.0003170615821852798	-0.0002235642048460983	-0.2398988058300876	-0.09479735564949479	-0.05979301973506067	0.4941512480091997	-8.393026275943157	0	0	0	-9.414759063478558	0	75.11350039299913	8.392816035985136	0	0
